<?xml version="1.0" encoding="UTF-8"?>
<svg width="256" height="256" viewBox="0 0 256 256" fill="none" xmlns="http://www.w3.org/2000/svg">
  <rect width="256" height="256" rx="56" fill="white"/>
  <g stroke="#1f2937" stroke-width="12" stroke-linecap="round" stroke-linejoin="round">
    <path d="M56 76h96a28 28 0 0 1 28 28v30a28 28 0 0 1-28 28H106l-38 28v-28h-12a28 28 0 0 1-28-28v-30a28 28 0 0 1 28-28z"/>
    <path d="M80 108h88"/>
    <path d="M80 132h72"/>
    <path d="M80 156h48"/>
  </g>
  <g transform="translate(164,20)">
    <circle cx="36" cy="36" r="32" fill="#3b82f6"/>
    <path d="M36 18l6.6 13.4 14.8 2.2-10.7 10.4 2.5 14.6L36 51.8 22.8 58.6l2.5-14.6-10.7-10.4 14.8-2.2L36 18z" fill="white"/>
  </g>
</svg>