<?xml version="1.0" encoding="UTF-8"?>
<svg width="256" height="256" viewBox="0 0 256 256" xmlns="http://www.w3.org/2000/svg">
  <defs>
    <linearGradient id="g" x1="0" y1="0" x2="1" y2="1">
      <stop offset="0" stop-color="#3b82f6"/>
      <stop offset="1" stop-color="#2563eb"/>
    </linearGradient>
  </defs>
  <rect width="256" height="256" rx="56" fill="url(#g)"/>
  <path d="M52 86h120c13.3 0 24 10.7 24 24v28c0 13.3-10.7 24-24 24H112l-36 26v-26H76c-13.3 0-24-10.7-24-24v-28c0-13.3 10.7-24 24-24z" fill="white"/>
  <rect x="76" y="112" width="92" height="12" rx="6" fill="#3b82f6" opacity="0.85"/>
  <rect x="76" y="138" width="64" height="12" rx="6" fill="#3b82f6" opacity="0.85"/>
  <circle cx="196" cy="64" r="28" fill="#1f2937" opacity="0.15"/>
  <path d="M196 44l6 12 13 2-9.5 9.2 2.2 12.9L196 73l-11.7 7.1 2.2-12.9-9.5-9.2 13-2 6-12z" fill="white"/>
</svg>